HIERARCHY
ROOT Hips
{
  OFFSET 5.72205e-005 65.662 3.42586
  CHANNELS 6 Xposition Yposition Zposition Zrotation Xrotation Yrotation
  JOINT Chest
  {
    OFFSET 0 8.7983 -4.7612
    CHANNELS 6 Xposition Yposition Zposition Zrotation Xrotation Yrotation
    JOINT Chest2
    {
      OFFSET 0 8.0291 0.4195
      CHANNELS 6 Xposition Yposition Zposition Zrotation Xrotation Yrotation
      JOINT Chest3
      {
        OFFSET 0 9.9351 -2.2114
        CHANNELS 6 Xposition Yposition Zposition Zrotation Xrotation Yrotation
        JOINT Neck
        {
          OFFSET 0 22.3885 -0.4656
          CHANNELS 6 Xposition Yposition Zposition Zrotation Xrotation Yrotation
          JOINT Head
          {
            OFFSET -0.0001 12.643 3.4389
            CHANNELS 6 Xposition Yposition Zposition Zrotation Xrotation Yrotation
            End Site
            {
              OFFSET 0.0001 17.6655 0.5274
            }
          }
        }
        JOINT LeftCollar
        {
          OFFSET 2.2603 21.606 7.4023
          CHANNELS 6 Xposition Yposition Zposition Zrotation Xrotation Yrotation
          JOINT LeftShoulder
          {
            OFFSET 13.5163 -1.1332 -5.0146
            CHANNELS 6 Xposition Yposition Zposition Zrotation Xrotation Yrotation
            JOINT LeftElbow
            {
              OFFSET -0.0995 -28.05 -0.2431
              CHANNELS 6 Xposition Yposition Zposition Zrotation Xrotation Yrotation
              JOINT LeftWrist
              {
                OFFSET 0.0679 -23.3996 -0.1402
                CHANNELS 6 Xposition Yposition Zposition Zrotation Xrotation Yrotation
                JOINT LeftFinger1
                {
                  OFFSET 0.7932 -9.069 2.5189
                  CHANNELS 6 Xposition Yposition Zposition Zrotation Xrotation Yrotation
                  JOINT LeftFinger11
                  {
                    OFFSET -0.8272 -3.3923 0.5977
                    CHANNELS 6 Xposition Yposition Zposition Zrotation Xrotation Yrotation
                    JOINT LeftFinger12
                    {
                      OFFSET -0.5649 -2.3158 0.4082
                      CHANNELS 6 Xposition Yposition Zposition Zrotation Xrotation Yrotation
                      End Site
                      {
                        OFFSET -0.4919 -1.6479 0.2673
                      }
                    }
                  }
                }
                JOINT LeftFinger2
                {
                  OFFSET 0.9159 -9.2044 0.2193
                  CHANNELS 6 Xposition Yposition Zposition Zrotation Xrotation Yrotation
                  JOINT LeftFinger21
                  {
                    OFFSET 0.0117 -4.1944 -0.0248
                    CHANNELS 6 Xposition Yposition Zposition Zrotation Xrotation Yrotation
                    JOINT LeftFinger22
                    {
                      OFFSET 0.0071 -2.3249 -0.0142
                      CHANNELS 6 Xposition Yposition Zposition Zrotation Xrotation Yrotation
                      End Site
                      {
                        OFFSET -0.1475 -2.0882 0.0028
                      }
                    }
                  }
                }
                JOINT LeftFinger3
                {
                  OFFSET 0.6113 -8.7231 -2.0637
                  CHANNELS 6 Xposition Yposition Zposition Zrotation Xrotation Yrotation
                  JOINT LeftFinger31
                  {
                    OFFSET -0.1927 -3.8059 -0.2383
                    CHANNELS 6 Xposition Yposition Zposition Zrotation Xrotation Yrotation
                    JOINT LeftFinger32
                    {
                      OFFSET -0.1091 -2.1688 -0.1362
                      CHANNELS 6 Xposition Yposition Zposition Zrotation Xrotation Yrotation
                      End Site
                      {
                        OFFSET -0.2358 -1.9176 -0.0906
                      }
                    }
                  }
                }
                JOINT LeftFinger4
                {
                  OFFSET -0.6151 -8.0947 -3.5641
                  CHANNELS 6 Xposition Yposition Zposition Zrotation Xrotation Yrotation
                  JOINT LeftFinger41
                  {
                    OFFSET -0.4882 -2.341 -0.6462
                    CHANNELS 6 Xposition Yposition Zposition Zrotation Xrotation Yrotation
                    JOINT LeftFinger42
                    {
                      OFFSET -0.3575 -1.7167 -0.4742
                      CHANNELS 6 Xposition Yposition Zposition Zrotation Xrotation Yrotation
                      End Site
                      {
                        OFFSET -0.4187 -1.5237 -0.3496
                      }
                    }
                  }
                }
                JOINT LeftFinger0
                {
                  OFFSET -1.42 -1.8761 1.4223
                  CHANNELS 6 Xposition Yposition Zposition Zrotation Xrotation Yrotation
                  JOINT LeftFinger01
                  {
                    OFFSET -1.1471 -3.4929 2.6334
                    CHANNELS 6 Xposition Yposition Zposition Zrotation Xrotation Yrotation
                    JOINT LeftFinger02
                    {
                      OFFSET -0.823 -2.3 1.6571
                      CHANNELS 6 Xposition Yposition Zposition Zrotation Xrotation Yrotation
                      End Site
                      {
                        OFFSET -0.5822 -1.6914 1.1582
                      }
                    }
                  }
                }
              }
            }
          }
        }
        JOINT RightCollar
        {
          OFFSET -2.2603 21.606 7.4023
          CHANNELS 6 Xposition Yposition Zposition Zrotation Xrotation Yrotation
          JOINT RightShoulder
          {
            OFFSET -13.5187 -1.1334 -5.0155
            CHANNELS 6 Xposition Yposition Zposition Zrotation Xrotation Yrotation
            JOINT RightElbow
            {
              OFFSET 0.0994 -28.0499 -0.2431
              CHANNELS 6 Xposition Yposition Zposition Zrotation Xrotation Yrotation
              JOINT RightWrist
              {
                OFFSET -0.0679 -23.3996 -0.1402
                CHANNELS 6 Xposition Yposition Zposition Zrotation Xrotation Yrotation
                JOINT RightFinger1
                {
                  OFFSET -0.7932 -9.0691 2.5189
                  CHANNELS 6 Xposition Yposition Zposition Zrotation Xrotation Yrotation
                  JOINT RightFinger11
                  {
                    OFFSET 0.8272 -3.3923 0.5977
                    CHANNELS 6 Xposition Yposition Zposition Zrotation Xrotation Yrotation
                    JOINT RightFinger12
                    {
                      OFFSET 0.565 -2.3158 0.4082
                      CHANNELS 6 Xposition Yposition Zposition Zrotation Xrotation Yrotation
                      End Site
                      {
                        OFFSET 0.4919 -1.6479 0.2673
                      }
                    }
                  }
                }
                JOINT RightFinger2
                {
                  OFFSET -0.916 -9.2044 0.2193
                  CHANNELS 6 Xposition Yposition Zposition Zrotation Xrotation Yrotation
                  JOINT RightFinger21
                  {
                    OFFSET -0.0117 -4.1944 -0.0248
                    CHANNELS 6 Xposition Yposition Zposition Zrotation Xrotation Yrotation
                    JOINT RightFinger22
                    {
                      OFFSET -0.0071 -2.3249 -0.0142
                      CHANNELS 6 Xposition Yposition Zposition Zrotation Xrotation Yrotation
                      End Site
                      {
                        OFFSET 0.1475 -2.0882 0.0028
                      }
                    }
                  }
                }
                JOINT RightFinger3
                {
                  OFFSET -0.6113 -8.7231 -2.0637
                  CHANNELS 6 Xposition Yposition Zposition Zrotation Xrotation Yrotation
                  JOINT RightFinger31
                  {
                    OFFSET 0.1927 -3.8059 -0.2383
                    CHANNELS 6 Xposition Yposition Zposition Zrotation Xrotation Yrotation
                    JOINT RightFinger32
                    {
                      OFFSET 0.1091 -2.1688 -0.1362
                      CHANNELS 6 Xposition Yposition Zposition Zrotation Xrotation Yrotation
                      End Site
                      {
                        OFFSET 0.2358 -1.9176 -0.0906
                      }
                    }
                  }
                }
                JOINT RightFinger4
                {
                  OFFSET 0.6151 -8.0947 -3.564
                  CHANNELS 6 Xposition Yposition Zposition Zrotation Xrotation Yrotation
                  JOINT RightFinger41
                  {
                    OFFSET 0.4882 -2.341 -0.6462
                    CHANNELS 6 Xposition Yposition Zposition Zrotation Xrotation Yrotation
                    JOINT RightFinger42
                    {
                      OFFSET 0.3574 -1.7166 -0.4742
                      CHANNELS 6 Xposition Yposition Zposition Zrotation Xrotation Yrotation
                      End Site
                      {
                        OFFSET 0.4187 -1.5237 -0.3496
                      }
                    }
                  }
                }
                JOINT RightFinger0
                {
                  OFFSET 1.4199 -1.8761 1.4221
                  CHANNELS 6 Xposition Yposition Zposition Zrotation Xrotation Yrotation
                  JOINT RightFinger01
                  {
                    OFFSET 1.1472 -3.4929 2.6336
                    CHANNELS 6 Xposition Yposition Zposition Zrotation Xrotation Yrotation
                    JOINT RightFinger02
                    {
                      OFFSET 0.8229 -2.3 1.6571
                      CHANNELS 6 Xposition Yposition Zposition Zrotation Xrotation Yrotation
                      End Site
                      {
                        OFFSET 0.5822 -1.6914 1.1582
                      }
                    }
                  }
                }
              }
            }
          }
        }
      }
    }
  }
  JOINT RightHip
  {
    OFFSET -9.412 3.9771 -0.7758
    CHANNELS 6 Xposition Yposition Zposition Zrotation Xrotation Yrotation
    JOINT RightKnee
    {
      OFFSET -0.7531 -40.938 0
      CHANNELS 6 Xposition Yposition Zposition Zrotation Xrotation Yrotation
      JOINT RightAnkle
      {
        OFFSET 0 -40.1986 0
        CHANNELS 6 Xposition Yposition Zposition Zrotation Xrotation Yrotation
        JOINT RightToe
        {
          OFFSET 0 -4.4182 9.239
          CHANNELS 6 Xposition Yposition Zposition Zrotation Xrotation Yrotation
          End Site
          {
            OFFSET 0 0 6.1981
          }
        }
      }
    }
  }
  JOINT LeftHip
  {
    OFFSET 9.4119 3.9773 -0.7758
    CHANNELS 6 Xposition Yposition Zposition Zrotation Xrotation Yrotation
    JOINT LeftKnee
    {
      OFFSET 0.7532 -40.9383 0
      CHANNELS 6 Xposition Yposition Zposition Zrotation Xrotation Yrotation
      JOINT LeftAnkle
      {
        OFFSET 0 -40.1986 0
        CHANNELS 6 Xposition Yposition Zposition Zrotation Xrotation Yrotation
        JOINT LeftToe
        {
          OFFSET 0 -4.4182 9.239
          CHANNELS 6 Xposition Yposition Zposition Zrotation Xrotation Yrotation
          End Site
          {
            OFFSET 0 0 6.1981
          }
        }
      }
    }
  }
}
MOTION
Frames:	4
Frame Time:	0.0333333
5.72205e-005 65.662 3.42586 0 0 -0 0 8.7983 -4.7612 0 0 -0 0 8.0291 0.4195 0 0 -0 0 9.9351 -2.2114 0 0 -0 0 22.3885 -0.4656 0 0 -0 -0.0001 12.643 3.4389 0 0 -0 2.2603 21.606 7.4023 0 0 -12.5014 13.5163 -1.1332 -5.0146 88.1196 14.2451 10.6914 -0.0995 -28.05 -0.2431 -0.00160068 -0.00239207 0.000740045 0.0679 -23.3996 -0.1402 -8.4365e-005 7.00714e-005 -9.52055e-007 0.7932 -9.069 2.5189 9.93923e-017 -1.98785e-016 -1.59028e-015 -0.8272 -3.3923 0.5977 9.93923e-017 -5.96354e-016 -1.59028e-015 -0.5649 -2.3158 0.4082 -9.93923e-017 -5.96354e-016 -1.59028e-015 0.9159 -9.2044 0.2193 9.93923e-017 -1.98785e-016 -1.59028e-015 0.0117 -4.1944 -0.0248 -0.0128176 0.00232552 8.52707e-005 0.0071 -2.3249 -0.0142 9.93923e-017 5.96354e-016 -0 0.6113 -8.7231 -2.0637 9.93923e-017 -1.98785e-016 -1.59028e-015 -0.1927 -3.8059 -0.2383 -0.0160551 0.00299681 0.000857156 -0.1091 -2.1688 -0.1362 -2.48481e-016 0 3.18055e-015 -0.6151 -8.0947 -3.5641 9.93923e-017 -1.98785e-016 -1.59028e-015 -0.4882 -2.341 -0.6462 -0.0125865 0.0031206 0.00282719 -0.3575 -1.7167 -0.4742 0 1.98785e-016 -0 -1.42 -1.8761 1.4223 9.93923e-017 -1.98785e-016 -1.59028e-015 -1.1471 -3.4929 2.6334 9.93923e-017 -5.96354e-016 -1.59028e-015 -0.823 -2.3 1.6571 -9.93923e-017 -5.96354e-016 -1.59028e-015 -2.2603 21.606 7.4023 -0.865644 0.16582 7.03859 -13.5187 -1.1334 -5.0155 -88.0329 10.2057 -10.5567 0.0994 -28.0499 -0.2431 0.0015593 -0.00248883 -0.000788628 -0.0679 -23.3996 -0.1402 7.87605e-005 4.10553e-005 1.24965e-005 -0.7932 -9.0691 2.5189 -3.97569e-016 -7.95139e-016 3.18055e-015 0.8272 -3.3923 0.5977 -1.98785e-016 -3.97569e-016 3.18055e-015 0.565 -2.3158 0.4082 -1.98785e-016 0 3.18055e-015 -0.916 -9.2044 0.2193 -3.97569e-016 -7.95139e-016 3.18055e-015 -0.0117 -4.1944 -0.0248 0.0129473 0.00231697 -8.70038e-005 -0.0071 -2.3249 -0.0142 9.93923e-017 -7.95139e-016 1.59028e-015 -0.6113 -8.7231 -2.0637 -3.97569e-016 -7.95139e-016 3.18055e-015 0.1927 -3.8059 -0.2383 0.0163314 0.00303369 -0.000872333 0.1091 -2.1688 -0.1362 3.97569e-016 7.95139e-016 -3.18055e-015 0.6151 -8.0947 -3.564 -3.97569e-016 -7.95139e-016 3.18055e-015 0.4882 -2.341 -0.6462 0.0145763 0.00367772 -0.00326275 0.3574 -1.7166 -0.4742 9.93923e-017 -3.97569e-016 -0 1.4199 -1.8761 1.4221 -3.97569e-016 -7.95139e-016 3.18055e-015 1.1472 -3.4929 2.6336 -1.98785e-016 -3.97569e-016 3.18055e-015 0.8229 -2.3 1.6571 -1.98785e-016 0 3.18055e-015 -9.412 3.9771 -0.7758 3.42482 1.32465 -0.0626183 -0.7531 -40.938 0 0.000117508 0.717283 0.000978199 0 -40.1986 0 -3.4257 -2.04197 -0.0604716 8.88178e-016 -4.4182 9.239 6.47761e-025 0 -0 9.4119 3.9773 -0.7758 -3.42483 1.34017 0.0627307 0.7532 -40.9383 -2.22045e-016 -0.000193936 0.682302 -0.0013703 -8.88179e-016 -40.1986 0 3.42574 -2.02253 0.0595886 -8.88178e-016 -4.4182 9.239 -8.45714e-024 0 -7.40531e-025 
0.111988 27.0406 42.7721 -180 -79.2592 -180 0 8.7983 -4.7612 0.461683 9.34286 0.0801471 2.77556e-017 8.0291 0.4195 0.928858 18.6862 0.084508 0 9.9351 -2.2114 0.92886 18.6862 0.0845073 0 22.3885 -0.4656 -5.6431e-006 13.332 -1.68954e-006 -0.0001 12.643 3.4389 -0.00379456 6.68666 0.0344233 2.2603 21.606 7.4023 -6.44115 -0.104095 -44.5489 13.5163 -1.1332 -5.0146 48.3409 14.0019 17.0061 -0.0995 -28.05 -0.2431 25.232 -42.4594 66.4166 0.0679 -23.3996 -0.1402 -38.2012 4.04397 -14.0779 0.7932 -9.069 2.5189 1.98785e-016 9.54166e-015 1.2921e-015 -0.8272 -3.3923 0.5977 -1.05391e-005 3.2898e-006 -4.45714e-006 -0.5649 -2.3158 0.4082 4.74305e-006 1.04102e-006 2.73584e-006 0.915901 -9.2044 0.2193 1.98785e-016 9.54166e-015 1.2921e-015 0.0117 -4.1944 -0.0248 -0.0128755 0.00232938 8.59445e-005 0.0071 -2.3249 -0.0142 -1.00909e-006 1.22772e-005 -4.05289e-006 0.6113 -8.7231 -2.0637 1.98785e-016 9.54166e-015 1.2921e-015 -0.1927 -3.8059 -0.2383 -0.0160883 0.00300294 0.000855587 -0.1091 -2.1688 -0.1362 -2.11279e-006 4.42867e-006 1.38462e-006 -0.6151 -8.0947 -3.5641 1.98785e-016 9.54166e-015 1.2921e-015 -0.4882 -2.341 -0.6462 -0.0126218 0.00313521 0.00282844 -0.3575 -1.7167 -0.4742 1.39149e-015 -6.36111e-015 -9.93923e-017 -1.42 -1.8761 1.4223 1.98785e-016 9.54166e-015 1.2921e-015 -1.1471 -3.4929 2.6334 -1.05391e-005 3.2898e-006 -4.45714e-006 -0.823 -2.3 1.6571 4.74305e-006 1.04102e-006 2.73584e-006 -2.2603 21.606 7.4023 5.61637 -0.426181 39.0799 -13.5187 -1.1334 -5.0155 -48.9228 11.1826 -13.3023 0.0994 -28.0499 -0.2431 -23.761 -42.1436 -66.4525 -0.0679 -23.3996 -0.1402 37.8368 3.94744 14.9494 -0.793201 -9.0691 2.5189 -5.227e-006 -9.32609e-006 -3.07284e-006 0.8272 -3.3923 0.5977 -3.57812e-015 -3.18055e-015 3.18055e-015 0.565 -2.3158 0.4082 -1.98785e-015 0 3.57812e-015 -0.916001 -9.2044 0.2193 -5.227e-006 -9.32609e-006 -3.07284e-006 -0.0117 -4.1944 -0.0248 0.0129624 0.00232361 -8.77103e-005 -0.00710001 -2.3249 -0.0142 5.1684e-015 -1.27222e-014 -7.95139e-016 -0.6113 -8.7231 -2.0637 -5.227e-006 -9.32609e-006 -3.07284e-006 0.1927 -3.8059 -0.2383 0.0163719 0.00304392 -0.000880702 0.1091 -2.1688 -0.1362 -3.97569e-016 -3.18055e-015 -2.38542e-015 0.6151 -8.0947 -3.564 -5.227e-006 -9.32609e-006 -3.07284e-006 0.4882 -2.341 -0.6462 0.0145604 0.00369142 -0.00326286 0.3574 -1.7166 -0.4742 1.10348e-031 -3.18055e-015 1.98785e-015 1.4199 -1.8761 1.4221 -5.227e-006 -9.32609e-006 -3.07284e-006 1.1472 -3.4929 2.6336 -3.57812e-015 -3.18055e-015 3.18055e-015 0.8229 -2.3 1.6571 -1.98785e-015 0 3.57812e-015 -9.412 3.9771 -0.7758 -11.7005 -70.9731 -18.5919 -0.7531 -40.938 0 1.6919 41.0307 -1.7895 1.77636e-015 -40.1986 7.10543e-015 -7.94773 3.9612 1.76014 -2.44249e-015 -4.4182 9.239 -3.42487e-007 -1.27222e-014 2.54652e-007 9.4119 3.9773 -0.7758 27.4261 -72.4325 41.5472 0.7532 -40.9383 0 2.25913 24.9493 -0.870989 1.77636e-015 -40.1986 0 7.31996 -2.73845 -7.56605 1.77636e-015 -4.4182 9.239 -2.38463e-006 -1.20253e-006 9.08985e-007 
0.298007 4.61606 50.6781 -180 -33.9259 -180 0 8.7983 -4.7612 0.725159 13.4892 0.0270701 0 8.0291 0.4195 1.50934 26.9777 -0.133198 0 9.9351 -2.2114 1.50934 26.9776 -0.133197 4.44089e-016 22.3885 -0.4656 -3.88992e-005 19.3308 -6.66454e-006 -0.0001 12.643 3.4389 0.019384 9.59144 -0.121337 2.2603 21.606 7.4023 -9.5062 0.100149 -58.976 13.5163 -1.1332 -5.0146 30.809 12.3856 18.7669 -0.0995 -28.05 -0.2431 37.4271 -60.9026 95.798 0.0679 -23.3996 -0.1402 -55.5417 5.36657 -18.8532 0.7932 -9.069 2.5189 -2.27995e-007 1.39041e-007 -1.63043e-006 -0.8272 -3.3923 0.5977 -2.05916e-006 4.62848e-007 -2.162e-006 -0.5649 -2.3158 0.4082 7.95139e-016 0 3.18055e-015 0.9159 -9.2044 0.2193 -2.27995e-007 1.39041e-007 -1.63043e-006 0.0117 -4.1944 -0.0248 -0.0128271 0.00232876 8.46863e-005 0.0071 -2.3249 -0.0142 2.48857e-006 -8.77722e-007 4.69062e-007 0.6113 -8.7231 -2.0637 -2.27995e-007 1.39041e-007 -1.63043e-006 -0.1927 -3.8059 -0.2383 -0.0160732 0.00300091 0.000857591 -0.1091 -2.1688 -0.1362 -2.05838e-006 -1.41488e-006 -2.16214e-006 -0.6151 -8.0947 -3.5641 -2.27995e-007 1.39041e-007 -1.63043e-006 -0.4882 -2.341 -0.6462 -0.012585 0.00312429 0.00282459 -0.3575 -1.7167 -0.4742 4.31904e-006 -6.10106e-008 1.00043e-006 -1.42 -1.8761 1.4223 -2.27995e-007 1.39041e-007 -1.63043e-006 -1.1471 -3.4929 2.6334 -2.05916e-006 4.62848e-007 -2.162e-006 -0.823 -2.3 1.6571 7.95139e-016 0 3.18055e-015 -2.2603 21.606 7.4023 8.78589 -0.409026 53.5004 -13.5187 -1.1334 -5.0155 -31.5295 10.795 -13.9339 0.0994 -28.0499 -0.2431 -35.1282 -60.9824 -94.9621 -0.0679 -23.3996 -0.1402 55.1505 5.46836 20.1491 -0.793201 -9.0691 2.5189 3.31881e-007 2.61752e-006 1.5878e-006 0.827201 -3.3923 0.5977 1.35978e-005 2.77988e-006 -2.15246e-006 0.565001 -2.3158 0.4082 3.31881e-007 2.77948e-006 1.5878e-006 -0.916001 -9.2044 0.2193 3.31881e-007 2.61752e-006 1.5878e-006 -0.0117 -4.1944 -0.0248 0.012993 0.00232389 -8.81807e-005 -0.00710001 -2.3249 -0.0142 3.31937e-007 2.67986e-006 1.58781e-006 -0.611301 -8.7231 -2.0637 3.31881e-007 2.61752e-006 1.5878e-006 0.1927 -3.8059 -0.2383 0.0163445 0.00303934 -0.00087236 0.1091 -2.1688 -0.1362 -1.68449e-006 2.80654e-006 -6.234e-007 0.615101 -8.0947 -3.564 3.31881e-007 2.61752e-006 1.5878e-006 0.4882 -2.341 -0.6462 0.0146304 0.00369383 -0.00327315 0.3574 -1.7166 -0.4742 3.31915e-007 1.80221e-006 1.58779e-006 1.4199 -1.8761 1.4221 3.31881e-007 2.61752e-006 1.5878e-006 1.1472 -3.4929 2.6336 1.35978e-005 2.77988e-006 -2.15246e-006 0.822901 -2.3 1.6571 3.31881e-007 2.77948e-006 1.5878e-006 -9.412 3.9771 -0.7758 -140.382 -73.1378 -145.784 -0.7531 -40.938 0 2.89622 57.5133 -2.8976 0 -40.1986 -1.77636e-015 -9.92791 7.56875 2.62414 3.55272e-015 -4.4182 9.239 -8.42872e-007 -1.02599e-006 6.20485e-008 9.4119 3.9773 -0.7758 123.483 -63.5051 136.694 0.7532 -40.9383 -1.77636e-015 3.71195 32.9103 -1.53896 0 -40.1986 1.77636e-015 9.00278 -1.44866 -11.1691 0 -4.4182 9.239 -7.95139e-015 -9.54166e-015 -3.18055e-015 
0.248724 10.266 48.9983 180 -44 180 2.77556e-017 8.7983 -4.7612 0.660876 12.4507 0.0481735 -5.55112e-017 8.0291 0.4195 1.36091 24.9012 -0.0570542 0 9.9351 -2.2114 1.3609 24.9011 -0.057053 0 22.3885 -0.4656 -2.7513e-005 17.9978 -5.1063e-006 -0.0001 12.643 3.4389 0.0678594 8.71411 -0.466948 2.2603 21.606 7.4023 -9.15546 0.587407 -55.7841 13.5163 -1.1332 -5.0146 35.0268 12.8761 18.4149 -0.0995 -28.05 -0.2431 34.65 -56.6554 89.2578 0.0679 -23.3996 -0.1402 -51.8752 5.35876 -17.5123 0.7932 -9.069 2.5189 -2.38542e-015 -7.95139e-016 -6.36111e-015 -0.8272 -3.3923 0.5977 -3.57812e-015 -7.95139e-016 -6.36111e-015 -0.5649 -2.3158 0.4082 -8.94531e-015 0 -3.18055e-015 0.9159 -9.2044 0.2193 -2.38542e-015 -7.95139e-016 -6.36111e-015 0.0117 -4.1944 -0.0248 -0.0128088 0.00232438 8.5332e-005 0.0071 -2.3249 -0.0142 9.74045e-015 7.95139e-016 -3.18055e-015 0.6113 -8.7231 -2.0637 -2.38542e-015 -7.95139e-016 -6.36111e-015 -0.1927 -3.8059 -0.2383 -0.016068 0.00300177 0.000859698 -0.1091 -2.1688 -0.1362 1.05356e-014 2.75068e-007 -3.18055e-015 -0.6151 -8.0947 -3.5641 -2.38542e-015 -7.95139e-016 -6.36111e-015 -0.4882 -2.341 -0.6462 -0.0125402 0.00311059 0.00281708 -0.3575 -1.7167 -0.4742 -5.56597e-015 -2.38542e-015 -9.54166e-015 -1.42 -1.8761 1.4223 -2.38542e-015 -7.95139e-016 -6.36111e-015 -1.1471 -3.4929 2.6334 -3.57812e-015 -7.95139e-016 -6.36111e-015 -0.823 -2.3 1.6571 -8.94531e-015 0 -3.18055e-015 -2.2603 21.606 7.4023 8.40823 0.136926 50.2995 -13.5187 -1.1334 -5.0155 -35.7326 10.9607 -13.8154 0.0994 -28.0499 -0.2431 -32.5636 -56.6237 -88.6787 -0.0679 -23.3996 -0.1402 51.734 5.55752 18.9725 -0.7932 -9.0691 2.5189 -9.34288e-015 9.03955e-007 3.18055e-015 0.8272 -3.3923 0.5977 2.04821e-006 -9.99019e-007 9.70493e-007 0.565 -2.3158 0.4082 -3.37934e-015 5.96354e-016 6.36111e-015 -0.916 -9.2044 0.2193 -9.34288e-015 9.03955e-007 3.18055e-015 -0.0117 -4.1944 -0.0248 0.0129352 0.00231213 -8.46693e-005 -0.0071 -2.3249 -0.0142 2.88238e-015 -7.95139e-016 -3.18055e-015 -0.6113 -8.7231 -2.0637 -9.34288e-015 9.03955e-007 3.18055e-015 0.1927 -3.8059 -0.2383 0.0163324 0.003035 -0.000871522 0.1091 -2.1688 -0.1362 5.56597e-015 9.93923e-016 -3.18055e-015 0.6151 -8.0947 -3.564 -9.34288e-015 9.03955e-007 3.18055e-015 0.4882 -2.341 -0.6462 0.0145901 0.00367904 -0.00326477 0.3574 -1.7166 -0.4742 4.96962e-016 1.78906e-015 -0 1.4199 -1.8761 1.4221 -9.34288e-015 9.03955e-007 3.18055e-015 1.1472 -3.4929 2.6336 2.04821e-006 -9.99019e-007 9.70493e-007 0.8229 -2.3 1.6571 -3.37934e-015 5.96354e-016 6.36111e-015 -9.412 3.9771 -0.7758 -123.886 -79.0229 -129.77 -0.7531 -40.938 0 2.5505 53.5655 -2.57698 0 -40.1986 0 -9.48709 6.7388 2.43201 3.55271e-015 -4.4182 9.239 -1.98785e-016 3.18055e-015 4.77083e-015 9.4119 3.9773 -0.7758 113.633 -69.6373 127.321 0.7532 -40.9383 -3.55271e-015 3.43223 31.4484 -1.4047 -3.55271e-015 -40.1986 0 8.59964 -1.84435 -10.3432 3.55272e-015 -4.4182 9.239 -3.53694e-007 -1.20096e-006 3.75959e-006 
